<mxfile host="app.diagrams.net" modified="2024-06-30T16:17:33.473Z" agent="Mozilla/5.0 (Macintosh; Intel Mac OS X 10_15_7) AppleWebKit/537.36 (KHTML, like Gecko) Chrome/125.0.0.0 Safari/537.36 Edg/125.0.0.0" etag="lK5pLPTd8Pmjxj089xUW" version="24.6.4" type="github">
  <diagram id="prtHgNgQTEPvFCAcTncT" name="Page-1">
    <mxGraphModel dx="869" dy="519" grid="1" gridSize="10" guides="1" tooltips="1" connect="1" arrows="1" fold="1" page="1" pageScale="1" pageWidth="827" pageHeight="1169" math="0" shadow="0">
      <root>
        <mxCell id="0" />
        <mxCell id="1" parent="0" />
        <mxCell id="lOro7IwkqPBN8DS7zrrR-1" value="api贷后-还款申请" style="swimlane;childLayout=stackLayout;resizeParent=1;resizeParentMax=0;startSize=20;html=1;labelBackgroundColor=none;fillColor=#B2C9AB;strokeColor=#788AA3;fontColor=#46495D;" vertex="1" parent="1">
          <mxGeometry x="220.00000000000045" y="200" width="820" height="690" as="geometry" />
        </mxCell>
        <mxCell id="lOro7IwkqPBN8DS7zrrR-2" value="apiopfcore" style="swimlane;startSize=20;html=1;labelBackgroundColor=none;fillColor=#B2C9AB;strokeColor=#788AA3;fontColor=#46495D;" vertex="1" parent="lOro7IwkqPBN8DS7zrrR-1">
          <mxGeometry y="20" width="410" height="670" as="geometry" />
        </mxCell>
        <mxCell id="lOro7IwkqPBN8DS7zrrR-7" value="" style="edgeStyle=orthogonalEdgeStyle;rounded=0;orthogonalLoop=1;jettySize=auto;html=1;strokeColor=#788AA3;fontColor=#46495D;fillColor=#B2C9AB;" edge="1" parent="lOro7IwkqPBN8DS7zrrR-2" source="lOro7IwkqPBN8DS7zrrR-5" target="lOro7IwkqPBN8DS7zrrR-6">
          <mxGeometry relative="1" as="geometry" />
        </mxCell>
        <mxCell id="lOro7IwkqPBN8DS7zrrR-5" value="还款申请接口" style="rounded=0;whiteSpace=wrap;html=1;labelBackgroundColor=none;fillColor=#B2C9AB;strokeColor=#788AA3;fontColor=#46495D;" vertex="1" parent="lOro7IwkqPBN8DS7zrrR-2">
          <mxGeometry x="39.999999999999545" y="50" width="120" height="60" as="geometry" />
        </mxCell>
        <mxCell id="lOro7IwkqPBN8DS7zrrR-9" value="否" style="edgeStyle=orthogonalEdgeStyle;rounded=0;orthogonalLoop=1;jettySize=auto;html=1;strokeColor=#788AA3;fontColor=#46495D;fillColor=#B2C9AB;" edge="1" parent="lOro7IwkqPBN8DS7zrrR-2" source="lOro7IwkqPBN8DS7zrrR-6" target="lOro7IwkqPBN8DS7zrrR-8">
          <mxGeometry relative="1" as="geometry" />
        </mxCell>
        <mxCell id="lOro7IwkqPBN8DS7zrrR-11" value="" style="edgeStyle=orthogonalEdgeStyle;rounded=0;orthogonalLoop=1;jettySize=auto;html=1;strokeColor=#788AA3;fontColor=#46495D;fillColor=#B2C9AB;" edge="1" parent="lOro7IwkqPBN8DS7zrrR-2" source="lOro7IwkqPBN8DS7zrrR-6">
          <mxGeometry relative="1" as="geometry">
            <mxPoint x="100" y="270" as="targetPoint" />
          </mxGeometry>
        </mxCell>
        <mxCell id="lOro7IwkqPBN8DS7zrrR-6" value="当前是否能提前结清" style="rhombus;whiteSpace=wrap;html=1;fillColor=#B2C9AB;strokeColor=#788AA3;fontColor=#46495D;rounded=0;labelBackgroundColor=none;" vertex="1" parent="lOro7IwkqPBN8DS7zrrR-2">
          <mxGeometry x="30" y="150" width="140" height="80" as="geometry" />
        </mxCell>
        <mxCell id="lOro7IwkqPBN8DS7zrrR-8" value="返回&lt;div&gt;系统不支持提前结清&lt;/div&gt;" style="whiteSpace=wrap;html=1;fillColor=#B2C9AB;strokeColor=#788AA3;fontColor=#46495D;rounded=0;labelBackgroundColor=none;" vertex="1" parent="lOro7IwkqPBN8DS7zrrR-2">
          <mxGeometry x="240" y="160" width="120" height="60" as="geometry" />
        </mxCell>
        <mxCell id="lOro7IwkqPBN8DS7zrrR-17" style="edgeStyle=orthogonalEdgeStyle;rounded=0;orthogonalLoop=1;jettySize=auto;html=1;entryX=0.5;entryY=0;entryDx=0;entryDy=0;strokeColor=#788AA3;fontColor=#46495D;fillColor=#B2C9AB;" edge="1" parent="lOro7IwkqPBN8DS7zrrR-2" source="lOro7IwkqPBN8DS7zrrR-12" target="lOro7IwkqPBN8DS7zrrR-16">
          <mxGeometry relative="1" as="geometry" />
        </mxCell>
        <mxCell id="lOro7IwkqPBN8DS7zrrR-12" value="查询还款计划" style="rounded=0;whiteSpace=wrap;html=1;labelBackgroundColor=none;fillColor=#B2C9AB;strokeColor=#788AA3;fontColor=#46495D;" vertex="1" parent="lOro7IwkqPBN8DS7zrrR-2">
          <mxGeometry x="39.999999999999545" y="270" width="120" height="60" as="geometry" />
        </mxCell>
        <mxCell id="lOro7IwkqPBN8DS7zrrR-19" value="否" style="edgeStyle=orthogonalEdgeStyle;rounded=0;orthogonalLoop=1;jettySize=auto;html=1;strokeColor=#788AA3;fontColor=#46495D;fillColor=#B2C9AB;" edge="1" parent="lOro7IwkqPBN8DS7zrrR-2" source="lOro7IwkqPBN8DS7zrrR-16" target="lOro7IwkqPBN8DS7zrrR-18">
          <mxGeometry relative="1" as="geometry" />
        </mxCell>
        <mxCell id="lOro7IwkqPBN8DS7zrrR-21" value="" style="edgeStyle=orthogonalEdgeStyle;rounded=0;orthogonalLoop=1;jettySize=auto;html=1;strokeColor=#788AA3;fontColor=#46495D;fillColor=#B2C9AB;" edge="1" parent="lOro7IwkqPBN8DS7zrrR-2" source="lOro7IwkqPBN8DS7zrrR-16" target="lOro7IwkqPBN8DS7zrrR-20">
          <mxGeometry relative="1" as="geometry" />
        </mxCell>
        <mxCell id="lOro7IwkqPBN8DS7zrrR-16" value="当前是否有要还款的账单" style="rhombus;whiteSpace=wrap;html=1;fillColor=#B2C9AB;strokeColor=#788AA3;fontColor=#46495D;rounded=0;labelBackgroundColor=none;" vertex="1" parent="lOro7IwkqPBN8DS7zrrR-2">
          <mxGeometry x="30" y="365" width="140" height="80" as="geometry" />
        </mxCell>
        <mxCell id="lOro7IwkqPBN8DS7zrrR-18" value="返回&lt;div&gt;当前期数已还款&lt;/div&gt;" style="whiteSpace=wrap;html=1;fillColor=#B2C9AB;strokeColor=#788AA3;fontColor=#46495D;rounded=0;labelBackgroundColor=none;" vertex="1" parent="lOro7IwkqPBN8DS7zrrR-2">
          <mxGeometry x="240" y="375" width="120" height="60" as="geometry" />
        </mxCell>
        <mxCell id="lOro7IwkqPBN8DS7zrrR-20" value="还款申请" style="whiteSpace=wrap;html=1;fillColor=#B2C9AB;strokeColor=#788AA3;fontColor=#46495D;rounded=0;labelBackgroundColor=none;" vertex="1" parent="lOro7IwkqPBN8DS7zrrR-2">
          <mxGeometry x="40" y="510" width="120" height="60" as="geometry" />
        </mxCell>
        <mxCell id="lOro7IwkqPBN8DS7zrrR-3" value="还款引擎repaytrade" style="swimlane;startSize=20;html=1;labelBackgroundColor=none;fillColor=#B2C9AB;strokeColor=#788AA3;fontColor=#46495D;" vertex="1" parent="lOro7IwkqPBN8DS7zrrR-1">
          <mxGeometry x="410" y="20" width="200" height="670" as="geometry" />
        </mxCell>
        <mxCell id="lOro7IwkqPBN8DS7zrrR-22" value="发起还款接口" style="whiteSpace=wrap;html=1;fillColor=#B2C9AB;strokeColor=#788AA3;fontColor=#46495D;rounded=0;labelBackgroundColor=none;" vertex="1" parent="lOro7IwkqPBN8DS7zrrR-3">
          <mxGeometry x="40" y="510" width="120" height="60" as="geometry" />
        </mxCell>
        <mxCell id="lOro7IwkqPBN8DS7zrrR-4" value="账务系统lcs" style="swimlane;startSize=20;html=1;labelBackgroundColor=none;fillColor=#B2C9AB;strokeColor=#788AA3;fontColor=#46495D;" vertex="1" parent="lOro7IwkqPBN8DS7zrrR-1">
          <mxGeometry x="610" y="20" width="210" height="670" as="geometry" />
        </mxCell>
        <mxCell id="lOro7IwkqPBN8DS7zrrR-13" value="查询还款计划列表接口" style="rounded=0;whiteSpace=wrap;html=1;labelBackgroundColor=none;fillColor=#B2C9AB;strokeColor=#788AA3;fontColor=#46495D;" vertex="1" parent="lOro7IwkqPBN8DS7zrrR-4">
          <mxGeometry x="44.999999999999545" y="270" width="120" height="60" as="geometry" />
        </mxCell>
        <mxCell id="lOro7IwkqPBN8DS7zrrR-14" style="edgeStyle=orthogonalEdgeStyle;rounded=0;orthogonalLoop=1;jettySize=auto;html=1;strokeColor=#788AA3;fontColor=#46495D;fillColor=#B2C9AB;" edge="1" parent="lOro7IwkqPBN8DS7zrrR-1" source="lOro7IwkqPBN8DS7zrrR-12" target="lOro7IwkqPBN8DS7zrrR-13">
          <mxGeometry relative="1" as="geometry" />
        </mxCell>
        <mxCell id="lOro7IwkqPBN8DS7zrrR-15" value="&lt;span style=&quot;color: rgb(221, 17, 68); font-family: Consolas, monospace, tahoma, Arial; font-size: 14px; text-align: left; text-wrap: wrap;&quot;&gt;lcs/pfcz/plan-list&lt;/span&gt;" style="edgeLabel;html=1;align=center;verticalAlign=middle;resizable=0;points=[];strokeColor=#788AA3;fontColor=#46495D;fillColor=#B2C9AB;" vertex="1" connectable="0" parent="lOro7IwkqPBN8DS7zrrR-14">
          <mxGeometry x="-0.159" relative="1" as="geometry">
            <mxPoint as="offset" />
          </mxGeometry>
        </mxCell>
        <mxCell id="lOro7IwkqPBN8DS7zrrR-23" value="" style="edgeStyle=orthogonalEdgeStyle;rounded=0;orthogonalLoop=1;jettySize=auto;html=1;strokeColor=#788AA3;fontColor=#46495D;fillColor=#B2C9AB;" edge="1" parent="lOro7IwkqPBN8DS7zrrR-1" source="lOro7IwkqPBN8DS7zrrR-20" target="lOro7IwkqPBN8DS7zrrR-22">
          <mxGeometry relative="1" as="geometry" />
        </mxCell>
        <mxCell id="lOro7IwkqPBN8DS7zrrR-24" value="/repaytrade/repay/repay-apply" style="edgeLabel;html=1;align=center;verticalAlign=middle;resizable=0;points=[];strokeColor=#788AA3;fontColor=#46495D;fillColor=#B2C9AB;" vertex="1" connectable="0" parent="lOro7IwkqPBN8DS7zrrR-23">
          <mxGeometry x="-0.1721" y="-1" relative="1" as="geometry">
            <mxPoint as="offset" />
          </mxGeometry>
        </mxCell>
      </root>
    </mxGraphModel>
  </diagram>
</mxfile>
